<?xml version="1.0" standalone="no"?>
<!DOCTYPE svg PUBLIC "-//W3C//DTD SVG 20010904//EN"
    "http://www.w3.org/TR/2001/REC-SVG-20010904/DTD/svg10.dtd">
<svg version="1.0" xmlns="http://www.w3.org/2000/svg"
     width="128.000000pt" height="128.000000pt" viewBox="0 0 128.000000 128.000000"
     preserveAspectRatio="xMidYMid meet">
  <metadata>
    Created by potrace 1.14, written by Peter Selinger 2001-2017
  </metadata>
  <g transform="translate(0.000000,128.000000) scale(0.100000,-0.100000)"
     fill="#000000" stroke="none">
    <path d="M581 1246 c-27 -29 -35 -58 -61 -226 -35 -232 -72 -322 -176 -428
-64 -66 -64 -66 -64 -124 l0 -58 109 0 109 0 9 -38 9 -37 124 0 124 0 9 38 9
37 109 0 109 0 0 58 c0 58 0 58 -64 123 -104 106 -143 205 -177 437 -23 159
-30 186 -61 220 -30 31 -87 30 -117 -2z m139 -243 c6 -49 18 -116 26 -151 8
-35 14 -67 14 -73 0 -5 -52 -9 -121 -9 -121 0 -121 0 -115 23 8 28 33 176 41
245 l7 52 68 0 68 0 12 -87z m96 -320 c15 -27 47 -72 71 -100 l45 -53 -292 0
-292 0 45 53 c24 28 56 73 71 100 l28 47 148 0 148 0 28 -47z m144 -213 c0
-19 -7 -20 -105 -20 l-105 0 -6 -27 c-3 -16 -7 -34 -10 -40 -5 -18 -183 -18
-188 0 -3 6 -7 24 -10 40 l-6 27 -105 0 c-98 0 -105 1 -105 20 0 20 7 20 320
20 313 0 320 0 320 -20z"/>
    <path d="M577 299 c-9 -5 -24 -24 -33 -40 -14 -27 -14 -35 0 -82 17 -56 76
-169 92 -174 13 -4 89 131 103 184 10 35 9 48 -4 73 -8 16 -24 34 -34 40 -25
13 -101 13 -124 -1z"/>
  </g>
</svg>