<?xml version="1.0" standalone="no"?>
<!DOCTYPE svg PUBLIC "-//W3C//DTD SVG 20010904//EN"
    "http://www.w3.org/TR/2001/REC-SVG-20010904/DTD/svg10.dtd">
<svg version="1.0" xmlns="http://www.w3.org/2000/svg"
     width="256.000000pt" height="256.000000pt" viewBox="0 0 256.000000 256.000000"
     preserveAspectRatio="xMidYMid meet">
  <metadata>
    Created by potrace 1.14, written by Peter Selinger 2001-2017
  </metadata>
  <g transform="translate(0.000000,256.000000) scale(0.100000,-0.100000)"
     fill="#000000" stroke="none">
    <path d="M1145 2389 c-349 -69 -597 -323 -656 -673 -7 -41 -9 -108 -6 -160 14
-210 96 -388 247 -535 l70 -68 0 -252 c0 -190 3 -260 14 -284 17 -43 68 -85
110 -93 29 -5 35 -11 40 -40 8 -42 50 -93 93 -110 46 -20 400 -20 446 0 43 17
85 68 93 110 5 29 11 35 40 40 42 8 93 50 110 93 11 24 14 94 14 284 l0 252
70 68 c167 162 245 347 245 579 0 174 -36 297 -125 433 -112 173 -271 287
-480 344 -68 18 -258 25 -325 12z m270 -164 c182 -38 352 -170 434 -335 94
-192 94 -388 0 -580 -33 -66 -59 -100 -119 -160 -102 -98 -122 -139 -128 -257
l-5 -93 -78 0 -79 0 0 158 0 157 160 160 160 160 0 85 0 85 -80 80 -80 80 -80
-80 -80 -80 -80 80 -80 80 -80 -80 -80 -80 -80 80 -80 80 -80 -80 -80 -80 0
-85 0 -85 160 -160 160 -160 0 -157 0 -158 -79 0 -79 0 -4 88 c-6 120 -29 167
-127 262 -200 194 -247 482 -120 740 126 255 419 395 704 335z m-215 -710 l80
80 80 -80 80 -80 80 80 80 80 0 -75 0 -75 -160 -160 -160 -160 -160 160 -160
160 0 75 0 75 80 -80 80 -80 80 80z m400 -930 c0 -46 -4 -60 -25 -80 l-24 -25
-271 0 -271 0 -24 25 c-21 20 -25 34 -25 80 l0 55 320 0 320 0 0 -55z"/>
  </g>
</svg>