<?xml version="1.0" standalone="no"?>
<!DOCTYPE svg PUBLIC "-//W3C//DTD SVG 20010904//EN"
    "http://www.w3.org/TR/2001/REC-SVG-20010904/DTD/svg10.dtd">
<svg version="1.0" xmlns="http://www.w3.org/2000/svg"
     width="119.000000pt" height="128.000000pt" viewBox="0 0 119.000000 128.000000"
     preserveAspectRatio="xMidYMid meet">
  <metadata>
    Created by potrace 1.14, written by Peter Selinger 2001-2017
  </metadata>
  <g transform="translate(0.000000,128.000000) scale(0.100000,-0.100000)"
     fill="#000000" stroke="none">
    <path d="M390 1261 c-15 -29 -12 -77 6 -96 13 -13 38 -15 147 -13 115 3 132 5
135 20 3 16 -10 18 -125 20 -120 3 -128 4 -128 23 0 19 8 20 168 23 l167 2 0
-24 c0 -15 -7 -25 -20 -29 -19 -5 -20 -13 -20 -214 1 -143 5 -219 14 -244 7
-20 103 -173 214 -341 111 -167 202 -310 202 -316 0 -29 -47 -32 -555 -32
-508 0 -555 3 -555 32 0 7 32 60 70 118 l70 106 58 -7 c101 -13 240 -10 320 8
85 18 214 22 310 10 57 -7 62 -7 62 11 0 25 -21 31 -141 39 -74 4 -119 1 -195
-13 -104 -20 -357 -25 -374 -8 -4 5 45 90 111 189 65 99 123 196 129 215 5 19
10 108 10 198 0 140 -2 163 -16 169 -9 3 -20 0 -25 -8 -5 -8 -9 -93 -9 -189
l0 -175 -191 -285 c-104 -157 -199 -302 -210 -322 -26 -51 -24 -82 7 -107 26
-21 36 -21 569 -21 533 0 543 0 569 21 28 22 34 55 15 92 -6 12 -102 159 -213
326 l-201 304 -3 199 -4 199 26 20 c19 15 26 30 26 54 0 62 -10 65 -220 65
-177 0 -190 -1 -200 -19z"/>
  </g>
</svg>
