<?xml version="1.0" standalone="no"?>
<!DOCTYPE svg PUBLIC "-//W3C//DTD SVG 20010904//EN"
    "http://www.w3.org/TR/2001/REC-SVG-20010904/DTD/svg10.dtd">
<svg version="1.0" xmlns="http://www.w3.org/2000/svg"
     width="128.000000pt" height="128.000000pt" viewBox="0 0 128.000000 128.000000"
     preserveAspectRatio="xMidYMid meet">
  <metadata>
    Created by potrace 1.14, written by Peter Selinger 2001-2017
  </metadata>
  <g transform="translate(0.000000,128.000000) scale(0.100000,-0.100000)"
     fill="#000000" stroke="none">
    <path d="M585 1195 c-30 -18 -54 -24 -95 -25 -55 0 -55 0 -79 -45 -17 -33 -38
-53 -72 -72 l-49 -26 0 -56 c0 -41 -7 -68 -25 -100 l-25 -44 25 -45 c18 -32
25 -59 25 -98 l0 -54 50 -31 c32 -20 58 -45 70 -69 11 -21 24 -41 30 -45 6 -4
10 -83 10 -209 0 -261 0 -261 111 -150 l79 79 79 -79 c111 -110 111 -110 111
145 l0 199 35 54 c22 35 50 63 77 78 43 23 43 24 48 88 4 42 14 78 28 102 l23
37 -25 40 c-20 31 -26 54 -26 99 l0 57 -46 25 c-29 16 -55 42 -75 73 -28 46
-29 47 -81 47 -39 0 -64 7 -93 25 -50 31 -61 31 -110 0z m97 -55 c21 -12 51
-20 80 -20 44 0 48 -2 69 -39 12 -21 39 -48 60 -60 36 -21 39 -25 39 -67 0
-30 8 -60 24 -87 l25 -42 -25 -40 c-16 -27 -24 -55 -24 -85 0 -42 -3 -47 -40
-68 -24 -14 -48 -38 -60 -62 -20 -38 -22 -40 -70 -40 -32 0 -61 -7 -84 -21
l-36 -21 -36 21 c-23 14 -52 21 -84 21 -46 0 -49 2 -73 43 -14 24 -42 52 -61
62 -33 18 -36 23 -36 63 0 28 -9 58 -25 85 l-24 42 24 44 c16 27 25 59 25 86
0 40 3 46 38 65 20 11 47 39 60 60 21 38 25 40 70 40 30 0 58 7 77 20 37 25
47 25 87 0z m-90 -686 l42 -27 51 27 c88 46 85 50 85 -141 l0 -167 -65 64 -65
64 -65 -64 -65 -64 0 167 c0 161 1 167 20 167 11 0 39 -12 62 -26z"/>
  </g>
</svg>
